<svg width="48" height="49" viewBox="0 0 48 49" fill="none" xmlns="http://www.w3.org/2000/svg">
<path d="M20.0566 46.8193C20.9795 47.7422 21.9639 48.2344 23.2559 48.2344C25.7168 48.2344 27.501 46.3887 27.501 43.8662C27.501 42.6973 27.0088 41.4053 26.0244 40.5439L16.7959 31.9307L13.2891 28.6699L20.918 28.9775H42.5C45.084 28.9775 47.2373 26.7627 47.2373 24.1172C47.2373 21.4717 45.084 19.2568 42.5 19.2568H20.918L13.2891 19.5645L16.7959 16.3652L26.0244 7.69043C27.0088 6.8291 27.501 5.59863 27.501 4.42969C27.501 1.96875 25.7168 0 23.2559 0C21.9639 0 20.9795 0.492188 20.0566 1.41504L1.66113 20.5488C0.430664 21.7793 0 22.8867 0 24.1172C0 25.3477 0.430664 26.4551 1.66113 27.6855L20.0566 46.8193Z" fill="black" style="fill:black;fill-opacity:1;"/>
</svg>
