<svg width="140" height="119" viewBox="0 0 140 119" fill="none" xmlns="http://www.w3.org/2000/svg">
<path d="M13.7812 97.4531C5.16797 97.4531 0 92.2852 0 83.6719V13.7812C0 5.16797 5.16797 0 13.7812 0H125.815C134.367 0 139.597 5.16797 139.597 13.7812V83.6719C139.597 92.2852 134.367 97.4531 125.815 97.4531H88.4092V108.466H88.7168C91.3623 108.466 93.5771 110.619 93.5771 113.388C93.5771 116.033 91.3623 118.248 88.7168 118.248H50.8799C48.2344 118.248 46.0195 116.033 46.0195 113.388C46.0195 110.619 48.2344 108.466 50.8799 108.466H51.1875V97.4531H13.7812ZM14.1504 87.4863H125.446C128.03 87.4863 129.63 85.8867 129.63 83.3643V14.0889C129.63 11.5049 128.03 9.9668 125.446 9.9668H14.1504C11.5664 9.9668 9.9668 11.5049 9.9668 14.0889V83.3643C9.9668 85.8867 11.5664 87.4863 14.1504 87.4863Z" fill="#fdfdfc"/>
</svg>
