<svg width="163" height="119" viewBox="0 0 163 119" fill="none" xmlns="http://www.w3.org/2000/svg">
<path d="M18.5801 107.666C6.27539 107.666 0 101.514 0 89.332V18.334C0 6.15234 6.27539 0 18.5801 0H118.925C131.229 0 137.443 6.21387 137.443 18.334V51.4336C135.782 51.249 134.121 51.126 132.46 51.126C130.799 51.126 129.076 51.249 127.415 51.4951V18.9492C127.415 13.043 124.216 10.0283 118.617 10.0283H18.8877C13.2275 10.0283 10.0898 13.043 10.0898 18.9492V82.626L27.0088 67.3066C29.4082 65.1533 31.8691 64.0459 34.4531 64.0459C37.2217 64.0459 39.9287 65.2148 42.3281 67.3682L53.0947 77.1504L79.3652 53.6484C82.0723 51.249 84.9023 50.1416 88.1631 50.1416C91.3008 50.1416 94.3154 51.3105 96.8994 53.71L105.943 62.2002C98.9912 68.9678 94.6846 78.4424 94.6846 88.8398C94.6846 95.6689 96.5918 102.067 99.8525 107.666H18.5801ZM43.9277 54.5713C36.3604 54.5713 30.1465 48.3574 30.1465 40.7285C30.1465 33.1611 36.3604 26.8857 43.9277 26.8857C51.4951 26.8857 57.709 33.1611 57.709 40.7285C57.709 48.3574 51.4951 54.5713 43.9277 54.5713ZM132.521 118.556C116.218 118.556 102.806 105.205 102.806 88.8398C102.806 72.5977 116.218 59.124 132.521 59.124C148.764 59.124 162.176 72.5361 162.176 88.8398C162.176 105.082 148.579 118.556 132.521 118.556ZM132.583 107.604C133.629 107.604 134.429 107.112 135.475 106.189L148.518 94.1309C149.379 93.3311 149.81 92.4697 149.81 91.3623C149.81 89.2705 148.21 87.6094 146.118 87.7324C145.072 87.7939 144.088 88.2246 143.35 88.9629L139.843 92.5312L136.274 96.2227L136.582 89.0244V73.8896C136.582 71.7363 134.798 70.0137 132.583 70.0137C130.368 70.0137 128.522 71.7363 128.522 73.8896V89.0244L128.83 96.2227L125.2 92.5312L121.755 88.9629C121.078 88.2246 120.032 87.6709 118.986 87.7324C116.895 87.7324 115.172 89.2705 115.295 91.3623C115.356 92.4697 115.726 93.3311 116.648 94.1309L129.63 106.189C130.676 107.174 131.537 107.604 132.583 107.604Z" fill="black" style="fill:black;fill-opacity:1;"/>
</svg>
