<svg width="150" height="124" viewBox="0 0 150 124" fill="none" xmlns="http://www.w3.org/2000/svg">
<path d="M10.0775 89.6969L0.479828 35.4948C-1.67349 23.5592 3.43295 16.361 15.5531 14.2692L93.8109 0.487917C105.931 -1.6654 113.129 3.318 115.283 15.2535L116.698 23.3131H51.1136C34.3177 23.3131 24.474 33.0953 24.474 49.7682V104.832C16.5374 104.216 11.6771 99.1715 10.0775 89.6969ZM51.1136 123.104C38.8089 123.104 32.5951 116.952 32.5951 104.77V49.7682C32.5951 37.5866 38.8089 31.4342 51.1136 31.4342H130.602C142.907 31.4342 149.182 37.6481 149.182 49.7682V104.77C149.182 116.89 142.907 123.104 130.602 123.104H51.1136ZM71.847 78.3766C78.6146 78.3766 84.2132 72.778 84.2132 65.9489C84.2132 59.2428 78.6146 53.5826 71.847 53.5826C65.0794 53.5826 59.5423 59.2428 59.5423 65.9489C59.5423 72.778 65.0794 78.3766 71.847 78.3766ZM49.2679 114.245H132.632C137.431 114.245 140.569 111.169 140.569 106.247V98.987L118.174 78.1305C115.836 75.9772 113.129 74.9928 110.361 74.9928C107.408 74.9928 104.885 75.9157 102.486 78.069L79.1068 98.8639L69.6322 90.3737C67.4789 88.4665 65.141 87.4206 62.6185 87.4206C60.3421 87.4206 58.0658 88.4049 55.9124 90.3737L41.2699 103.417V106.185C41.2699 111.107 44.346 114.245 49.2679 114.245Z" fill="#fdfdfc"/>
</svg>
