<svg width="108" height="108" viewBox="0 0 108 108" fill="none" xmlns="http://www.w3.org/2000/svg">
<path d="M0 102.929V4.7373C0 1.90723 1.90723 0 4.7373 0H102.929C105.759 0 107.666 1.90723 107.666 4.7373V102.929C107.666 105.759 105.759 107.666 102.929 107.666H4.7373C1.90723 107.666 0 105.759 0 102.929ZM10.0898 11.751V32.6689H32.6074V10.0283H11.751C10.5205 10.0283 10.0898 10.5205 10.0898 11.751ZM42.5742 32.6689H65.1533V10.0283H42.5742V32.6689ZM95.915 10.0283H75.0586V32.6689H97.6377V11.751C97.6377 10.5205 97.1455 10.0283 95.915 10.0283ZM10.0898 65.2148H32.6074V42.6357H10.0898V65.2148ZM42.5742 65.2148H65.1533V42.6357H42.5742V65.2148ZM75.0586 65.2148H97.6377V42.6357H75.0586V65.2148ZM10.0898 95.915C10.0898 97.1455 10.5205 97.5762 11.751 97.5762H32.6074V75.1816H10.0898V95.915ZM42.5742 97.5762H65.1533V75.1816H42.5742V97.5762ZM97.6377 95.915V75.1816H75.0586V97.5762H95.915C97.1455 97.5762 97.6377 97.1455 97.6377 95.915Z" fill="#fdfdfc"/>
</svg>
