<svg width="102" height="116" viewBox="0 0 102 116" fill="none" xmlns="http://www.w3.org/2000/svg">
<path d="M50.8033 115.295C20.1031 115.295 -4.38322 103.482 0.661701 82.9336L10.0748 44.666L10.9976 22.5791C11.6129 9.22852 26.8092 0 50.8033 0C74.7974 0 90.0553 9.22852 90.609 22.5791L91.5318 44.666L100.945 82.9336C106.051 103.482 81.565 115.295 50.8033 115.295ZM50.8033 29.8389C65.5689 29.8389 76.9508 25.04 76.9508 19.1338C76.9508 13.2275 65.5689 8.42871 50.8033 8.42871C36.0377 8.42871 24.6558 13.2275 24.6558 19.1338C24.6558 25.04 36.0377 29.8389 50.8033 29.8389ZM50.8033 105.267C73.3824 105.267 94.3004 97.1455 91.1012 84.2256L84.272 56.2324C77.1353 61.4619 65.6305 64.7227 50.8033 64.7227C35.9762 64.7227 24.4713 61.4619 17.3961 56.2324L10.5055 84.2256C7.30623 97.1455 28.2242 105.267 50.8033 105.267Z" fill="#040101"/>
</svg>
