<svg width="142" height="101" viewBox="0 0 142 101" fill="none" xmlns="http://www.w3.org/2000/svg">
<path d="M18.5801 100.898C6.33691 100.898 0 94.6846 0 82.5645V18.334C0 6.15234 6.27539 0 16.9189 0H122.555C134.798 0 141.135 6.15234 141.135 18.334V82.5645C141.135 94.6846 134.859 100.898 124.216 100.898H18.5801ZM65.0918 54.2021C66.8145 55.8018 68.6602 56.54 70.5674 56.54C72.4131 56.54 74.2588 55.8018 76.043 54.2021L125.385 9.7207C124.585 9.59766 123.724 9.47461 122.801 9.47461H18.334C17.4111 9.47461 16.5498 9.59766 15.75 9.7207L65.0918 54.2021ZM131.599 18.457C131.599 17.7188 131.537 16.9805 131.476 16.3652L96.3457 47.9883L131.599 83.1797C131.599 82.9951 131.599 82.749 131.599 82.5029V18.457ZM9.53613 82.4414C9.53613 82.4414 9.53613 82.4414 9.53613 83.1797L44.7891 47.9883L9.65918 16.3652C9.53613 16.9805 9.53613 17.6572 9.53613 18.3955V82.4414ZM18.334 91.3623H122.801C124.154 91.3623 125.446 91.1777 126.492 90.8086L89.6396 53.9561L81.3955 61.4004C77.9502 64.5381 74.3818 65.9531 70.5674 65.9531C66.6914 65.9531 63.123 64.5381 59.7393 61.4004L51.4951 54.0176L14.6426 90.8086C15.6885 91.1777 16.9805 91.3623 18.334 91.3623Z" fill="black" style="fill:black;fill-opacity:1;"/>
</svg>
