<svg width="157" height="124" viewBox="0 0 157 124" fill="none" xmlns="http://www.w3.org/2000/svg">
<path d="M78.1733 99.9141C74.4204 99.9141 71.4057 98.1299 71.4057 95.5459V49.2188C60.8237 46.2656 53.0717 36.6064 53.0717 24.9785C53.0717 11.2588 64.3305 0 78.1733 0C91.9546 0 103.213 11.1973 103.213 24.9785C103.213 36.4834 95.5844 46.1426 85.0639 49.1572V95.5459C85.0639 98.1299 81.9878 99.9141 78.1733 99.9141ZM25.5092 64.5381C25.5092 68.6602 21.4487 70.1982 18.1879 67.6758L1.63814 55.0635C-0.576701 53.4023 -0.515178 50.3262 1.63814 48.7266L18.1879 36.0527C21.3872 33.5918 25.5092 34.8838 25.5092 39.1904V47.0654H41.8745C44.52 47.0654 46.6733 49.1572 46.6733 51.8027C46.6733 54.5098 44.52 56.6016 41.8745 56.6016H25.5092V64.5381ZM109.735 51.8027C109.735 49.1572 111.827 47.0654 114.534 47.0654H130.899V39.1904C130.899 34.8838 135.021 33.5918 138.22 36.0527L154.77 48.7266C156.923 50.3262 156.985 53.4023 154.77 55.0635L138.22 67.6758C134.959 70.1982 130.899 68.6602 130.899 64.5381V56.6016H114.534C111.827 56.6016 109.735 54.5098 109.735 51.8027ZM78.4194 123.293C59.0395 123.293 44.0278 110.619 44.0278 94.3154C44.0278 82.1338 52.3335 72.1055 64.5766 67.7373V78.4424C57.9936 81.7031 53.7485 87.4863 53.7485 94.3154C53.7485 105.205 64.4536 113.634 78.4194 113.634C92.3237 113.634 102.967 105.205 102.967 94.3154C102.967 87.3633 98.6606 81.5186 91.893 78.1963V67.6143C104.259 71.8594 112.688 82.0723 112.688 94.3154C112.688 110.619 97.6762 123.293 78.4194 123.293Z" fill="#040101"/>
</svg>
