<svg width="132" height="135" viewBox="0 0 132 135" fill="none" xmlns="http://www.w3.org/2000/svg">
<path d="M16.7959 134.921C5.7832 134.921 0 129.445 0 118.925V15.9961C0 5.47559 5.7832 0 16.7959 0H39.0674C49.0957 0 54.6328 4.86035 55.248 14.0889C60.5391 5.10645 68.2295 3.32227 77.7041 8.79785L97.0225 19.9951C104.713 24.4248 107.42 30.3926 105.082 37.5293C109.942 37.7754 114.249 40.9746 117.633 46.8809L128.769 66.1377C134.121 75.3662 132.091 82.9951 123.108 88.2246L52.9717 128.646C50.3877 132.768 45.7119 134.921 39.0674 134.921H16.7959ZM9.9668 16.4883V41.6514H45.4043V16.4883C45.4043 12.7354 42.6357 9.9668 38.9443 9.9668H16.9805C12.9814 9.9668 9.9668 12.7354 9.9668 16.4883ZM63.5537 19.626L55.3711 33.8379V43.9893L81.5801 59.1855L94.1924 37.3447C96.0381 34.084 95.1152 30.3311 91.8545 28.4854L72.9053 17.5342C69.3984 15.5039 65.3994 16.3652 63.5537 19.626ZM99.9756 49.2188L98.3145 50.1416L84.9023 73.3975L95.8535 92.4082L117.633 79.8574C120.894 78.0117 121.939 74.1973 120.094 70.9365L109.081 51.9873C107.112 48.4805 103.175 47.3115 99.9756 49.2188ZM9.9668 83.3027H45.4043V51.6182H9.9668V83.3027ZM55.3711 92.0391L60.7852 95.1768L76.5967 67.7988L55.3711 55.4941V92.0391ZM79.1191 83.3643L62.9385 111.419L87.2402 97.3916L79.1191 83.3643ZM16.9805 124.954H38.9443C42.6357 124.954 45.4043 122.186 45.4043 118.433V93.2695H9.9668V118.433C9.9668 122.186 12.9814 124.954 16.9805 124.954ZM55.3711 103.544V104.713L55.8633 103.852L55.3711 103.544Z" fill="#fdfdfc"/>
</svg>
