<svg width="98" height="118" viewBox="0 0 98 118" fill="none" xmlns="http://www.w3.org/2000/svg">
<path d="M0 68.9678V24.6094C0 18.2109 2.70703 16.0576 7.875 13.9043C14.5811 11.1357 36.7295 2.83008 43.374 0.984375C45.0352 0.492188 46.8809 0 48.665 0C50.3877 0 52.2334 0.430664 53.8945 0.984375C60.6006 3.26074 82.6875 11.0742 89.3936 13.9043C94.623 16.1191 97.2686 18.2109 97.2686 24.6094V68.9678C97.2686 90.1934 85.8252 98.2529 52.6025 116.648C51.126 117.51 49.5879 117.817 48.665 117.817C47.6807 117.817 46.2041 117.51 44.666 116.648C11.5049 98.1299 0 90.1934 0 68.9678ZM49.7725 106.497C50.4492 106.374 51.249 106.005 52.1719 105.39C78.873 89.209 87.4863 84.4717 87.4863 66.8145V26.3936C87.4863 24.4248 87.0557 23.5635 85.4561 23.0098C76.5352 19.8721 59.6777 13.8428 51.1875 10.459C50.5723 10.2744 50.2031 10.1514 49.7725 10.0898V106.497Z" fill="black" style="fill:black;fill-opacity:1;"/>
</svg>
